<svg id="menu-icon" xmlns="http://www.w3.org/2000/svg" viewBox="0 0 512 512"><defs><style>.cls-1{fill:#fff;}</style></defs><path class="cls-1" d="M439.39,124.4c-21.86,0-48.39,9.21-79.22,27.43C378.39,121,387.6,94.47,387.6,72.61,387.6,34,361.55,0,316,0c-19.72,0-42,11-60,28.87C238,11,215.72,0,196,0c-45,0-71.6,33.49-71.6,72.61,0,21.86,9.21,48.39,27.43,79.22C121,133.61,94.47,124.4,72.61,124.4,34,124.4,0,150.45,0,196c0,19.72,11,42,28.87,60C11,274,0,296.28,0,316c0,45,33.49,71.6,72.61,71.6,21.86,0,48.39-9.21,79.22-27.43C133.61,391,124.4,417.53,124.4,439.39c0,38.65,26,72.61,71.6,72.61,19.72,0,42-11,60-28.87C274,501,296.28,512,316,512c45,0,71.6-33.49,71.6-72.61,0-21.86-9.21-48.39-27.43-79.22,30.83,18.22,57.36,27.43,79.22,27.43C478,387.6,512,361.55,512,316c0-19.72-11-42-28.87-60C501,238,512,215.72,512,196,512,151,478.51,124.4,439.39,124.4ZM196,30c14.55,0,34.72,12.9,48,30.67a15,15,0,0,0,24,0C281.28,42.9,301.45,30,316,30c40.43,0,41.6,38.25,41.6,42.62,0,47.17-60.05,119.84-101.6,161-38.21-37.84-101.6-112.74-101.6-161C154.4,68.25,155.57,30,196,30ZM30,316c0-14.55,12.9-34.72,30.67-48a15,15,0,0,0,0-24C42.9,230.72,30,210.55,30,196c0-40.43,38.25-41.6,42.62-41.6,48.77,0,123.23,63.48,161,101.6-42.06,42.47-114.86,101.6-161,101.6C68.25,357.6,30,356.43,30,316ZM316,482c-14.55,0-34.72-12.9-48-30.67a15,15,0,0,0-24,0C230.72,469.1,210.55,482,196,482c-40.43,0-41.6-38.25-41.6-42.61,0-48.87,63.71-123.47,101.6-161,46.07,45.62,101.6,116.48,101.6,161C357.6,443.75,356.43,482,316,482ZM451.33,268C469.1,281.28,482,301.45,482,316c0,40.43-38.25,41.6-42.61,41.6-47.18,0-119.84-60.05-161-101.6,37.84-38.21,112.43-101.6,161-101.6,4.36,0,42.61,1.17,42.61,41.6,0,14.55-12.9,34.72-30.67,48A15,15,0,0,0,451.33,268Z"/></svg>